<svg width="181" height="41" viewBox="0 0 181 41" version="1.1" xmlns="http://www.w3.org/2000/svg" xmlns:xlink="http://www.w3.org/1999/xlink">
<title>Button</title>
<desc>Created using Figma</desc>
<g id="Canvas" transform="translate(-8475 -1435)">
<g id="Button">
<g id="Rectangle">
<use xlink:href="#path0_fill" transform="translate(8475 1435)" fill="#FF813F"/>
</g>
<g id="Group">
<g id="Combined Shape">
<use xlink:href="#path1_fill" transform="translate(8518.24 1442.57)" fill="#FFFFFF"/>
</g>
<g id="Logo">
<g id="Fill 1">
<use xlink:href="#path2_fill" transform="translate(8500.85 1446.99)" fill="#FF9100"/>
</g>
<g id="Fill 2">
<use xlink:href="#path3_fill" transform="translate(8500.85 1446.99)" fill="#FFDD00"/>
</g>
<g id="Fill 3">
<use xlink:href="#path4_fill" transform="translate(8498.97 1445.1)" fill="#FFFFFF"/>
</g>
<g id="Stroke 4">
<use xlink:href="#path5_stroke" transform="translate(8498.97 1445.1)"/>
</g>
<g id="Fill 6">
<use xlink:href="#path6_fill" transform="translate(8500.91 1442.03)" fill="#FFFFFF"/>
</g>
<g id="Group 11">
<g id="Stroke 7">
<use xlink:href="#path7_stroke" transform="translate(8500.91 1442.03)" fill="#050505"/>
</g>
<g id="Stroke 9">
<use xlink:href="#path8_stroke" transform="translate(8499.68 1446.99)"/>
</g>
</g>
<g id="Fill 12">
<use xlink:href="#path9_fill" transform="translate(8499.38 1452.79)" fill="#FFFFFF"/>
</g>
<g id="Stroke 13">
<use xlink:href="#path10_stroke" transform="translate(8499.38 1452.79)"/>
</g>
</g>
<g id="Oval" opacity="0.1">
<mask id="mask0_outline_ins">
<use xlink:href="#path11_fill" fill="white" transform="translate(8491 1447.39)"/>
</mask>
<g mask="url(#mask0_outline_ins)">
<use xlink:href="#path12_stroke_2x" transform="translate(8491 1447.39)"/>
</g>
</g>
<g id="Oval" opacity="0.1">
<use xlink:href="#path13_fill" transform="translate(8517.39 1455.9)"/>
</g>
<g id="Oval">
<use xlink:href="#path13_fill" transform="translate(8496.11 1462.43)" fill="#FFFFFF"/>
</g>
</g>
<g id="Page 1">
<g id="Fill 4">
<use xlink:href="#path14_fill" transform="translate(8535.01 1451.77)" fill="#FFFFFF"/>
</g>
<g id="Fill 1">
<use xlink:href="#path15_fill" transform="translate(8525 1447.21)" fill="#FFFFFF"/>
</g>
<g id="Fill 7">
<use xlink:href="#path16_fill" transform="translate(8558.93 1451.34)" fill="#FFFFFF"/>
</g>
<g id="Fill 9">
<use xlink:href="#path17_fill" transform="translate(8585.38 1451.76)" fill="#FFFFFF"/>
</g>
<g id="Group 13">
<g id="Fill 11">
<use xlink:href="#path18_fill" transform="translate(8599.79 1447.29)" fill="#FFFFFF"/>
</g>
</g>
</g>
</g>
</g>
<defs>
<path id="path0_fill" fill-rule="evenodd" d="M 0 4.8C 0 3.11984 0 2.27976 0.32698 1.63803C 0.614601 1.07354 1.07354 0.614601 1.63803 0.32698C 2.27976 0 3.11984 0 4.8 0L 176.2 0C 177.88 0 178.72 0 179.362 0.32698C 179.926 0.614601 180.385 1.07354 180.673 1.63803C 181 2.27976 181 3.11984 181 4.8L 181 36.2C 181 37.8802 181 38.7202 180.673 39.362C 180.385 39.9265 179.926 40.3854 179.362 40.673C 178.72 41 177.88 41 176.2 41L 4.8 41C 3.11984 41 2.27976 41 1.63803 40.673C 1.07354 40.3854 0.614601 39.9265 0.32698 39.362C 0 38.7202 0 37.8802 0 36.2L 0 4.8Z"/>
<path id="path1_fill" fill-rule="evenodd" d="M 1.34473 0.303589C 1.28809 0.398071 1.25488 0.508789 1.25488 0.627197L 1.25488 1.25439L 0.626953 1.25439C 0.28125 1.25439 0 1.53528 0 1.88159L 0 2.0907C 0 2.43713 0.28125 2.7179 0.626953 2.7179L 1.25488 2.7179L 1.25488 3.34509C 1.25488 3.69153 1.53613 3.97229 1.88184 3.97229L 2.09082 3.97229C 2.4375 3.97229 2.71875 3.69153 2.71875 3.34509L 2.71875 2.7179L 3.34473 2.7179C 3.69141 2.7179 3.97266 2.43713 3.97266 2.0907L 3.97266 1.88159C 3.97266 1.53528 3.69141 1.25439 3.34473 1.25439L 2.71875 1.25439L 2.71875 0.627197C 2.71875 0.280762 2.4375 0 2.09082 0L 1.88184 0C 1.6543 0 1.4541 0.121582 1.34473 0.303589Z"/>
<path id="path2_fill" fill-rule="evenodd" d="M 6.57488 0.0398415L 0 0L 3.22874 20.5119L 3.93319 20.5119L 10.3907 20.5119L 11.0951 20.5119L 14.3238 0L 6.57488 0.0398415Z"/>
<path id="path3_fill" fill-rule="evenodd" d="M 6.57488 0.0398415L 0 0L 3.22874 20.5119L 3.93319 20.5119L 8.74694 20.5119L 9.45139 20.5119L 12.6801 0L 6.57488 0.0398415Z"/>
<path id="path4_fill" fill-rule="evenodd" d="M 0 1.89158L 16.9655 1.89158L 16.9655 0L 0 0L 0 1.89158Z"/>
<path id="path5_stroke" d="M 0 1.89158L -0.440282 1.89158L -0.440282 2.33187L 0 2.33187L 0 1.89158ZM 16.9655 1.89158L 16.9655 2.33187L 17.4058 2.33187L 17.4058 1.89158L 16.9655 1.89158ZM 16.9655 0L 17.4058 0L 17.4058 -0.440282L 16.9655 -0.440282L 16.9655 0ZM 0 0L 0 -0.440282L -0.440282 -0.440282L -0.440282 0L 0 0ZM 0 2.33187L 16.9655 2.33187L 16.9655 1.4513L 0 1.4513L 0 2.33187ZM 17.4058 1.89158L 17.4058 0L 16.5253 0L 16.5253 1.89158L 17.4058 1.89158ZM 16.9655 -0.440282L 0 -0.440282L 0 0.440282L 16.9655 0.440282L 16.9655 -0.440282ZM -0.440282 0L -0.440282 1.89158L 0.440282 1.89158L 0.440282 0L -0.440282 0Z"/>
<path id="path6_fill" fill-rule="evenodd" d="M 11.7409 0L 7.69026 0L 5.28339 0L 1.23279 0L 0 2.83737L 5.28339 2.83737L 7.69026 2.83737L 12.9736 2.83737L 11.7409 0Z"/>
<path id="path7_stroke" d="M 11.7409 0L 12.1447 -0.17545L 12.0296 -0.440282L 11.7409 -0.440282L 11.7409 0ZM 1.23279 0L 1.23279 -0.440282L 0.944041 -0.440282L 0.828976 -0.17545L 1.23279 0ZM 0 2.83737L -0.403814 2.66192L -0.671339 3.27766L 0 3.27766L 0 2.83737ZM 12.9736 2.83737L 12.9736 3.27766L 13.645 3.27766L 13.3775 2.66192L 12.9736 2.83737ZM 11.7409 -0.440282L 7.69026 -0.440282L 7.69026 0.440282L 11.7409 0.440282L 11.7409 -0.440282ZM 7.69026 -0.440282L 5.28339 -0.440282L 5.28339 0.440282L 7.69026 0.440282L 7.69026 -0.440282ZM 5.28339 -0.440282L 1.23279 -0.440282L 1.23279 0.440282L 5.28339 0.440282L 5.28339 -0.440282ZM 0.828976 -0.17545L -0.403814 2.66192L 0.403814 3.01282L 1.6366 0.17545L 0.828976 -0.17545ZM 0 3.27766L 5.28339 3.27766L 5.28339 2.39709L 0 2.39709L 0 3.27766ZM 5.28339 3.27766L 7.69026 3.27766L 7.69026 2.39709L 5.28339 2.39709L 5.28339 3.27766ZM 7.69026 3.27766L 12.9736 3.27766L 12.9736 2.39709L 7.69026 2.39709L 7.69026 3.27766ZM 13.3775 2.66192L 12.1447 -0.17545L 11.337 0.17545L 12.5698 3.01282L 13.3775 2.66192Z"/>
<path id="path8_stroke" d="M 7.74897 0.0398415L 7.7467 0.480141L 7.75123 0.480118L 7.74897 0.0398415ZM 0 0L 0.00226369 -0.440276L -0.515426 -0.442938L -0.434927 0.0684611L 0 0ZM 3.22874 20.5119L 2.79381 20.5803L 2.85234 20.9521L 3.22874 20.9521L 3.22874 20.5119ZM 12.2692 20.5119L 12.2692 20.9521L 12.6456 20.9521L 12.7041 20.5803L 12.2692 20.5119ZM 15.4979 0L 15.9329 0.0684611L 16.0134 -0.442938L 15.4957 -0.440276L 15.4979 0ZM 7.75123 -0.400435L 0.00226369 -0.440276L -0.00226369 0.440276L 7.7467 0.480118L 7.75123 -0.400435ZM -0.434927 0.0684611L 2.79381 20.5803L 3.66366 20.4434L 0.434927 -0.0684611L -0.434927 0.0684611ZM 3.22874 20.9521L 3.93319 20.9521L 3.93319 20.0716L 3.22874 20.0716L 3.22874 20.9521ZM 3.93319 20.9521L 11.5647 20.9521L 11.5647 20.0716L 3.93319 20.0716L 3.93319 20.9521ZM 11.5647 20.9521L 12.2692 20.9521L 12.2692 20.0716L 11.5647 20.0716L 11.5647 20.9521ZM 12.7041 20.5803L 15.9329 0.0684611L 15.063 -0.0684611L 11.8343 20.4434L 12.7041 20.5803ZM 15.4957 -0.440276L 7.7467 -0.400435L 7.75123 0.480118L 15.5002 0.440276L 15.4957 -0.440276Z"/>
<path id="path9_fill" fill-rule="evenodd" d="M 16.0263 0L 8.29134 0L 7.73494 0L 0 0L 1.44683 8.15745L 8.01314 8.08634L 14.5794 8.15745L 16.0263 0Z"/>
<path id="path10_stroke" d="M 16.0263 0L 16.4598 0.0768895L 16.5515 -0.440282L 16.0263 -0.440282L 16.0263 0ZM 0 0L 0 -0.440282L -0.525243 -0.440282L -0.433516 0.0768896L 0 0ZM 1.44683 8.15745L 1.01331 8.23434L 1.07847 8.60175L 1.45159 8.59771L 1.44683 8.15745ZM 8.01314 8.08634L 8.01791 7.64598L 8.00837 7.64608L 8.01314 8.08634ZM 14.5794 8.15745L 14.5747 8.59771L 14.9478 8.60175L 15.013 8.23434L 14.5794 8.15745ZM 16.0263 -0.440282L 8.29134 -0.440282L 8.29134 0.440282L 16.0263 0.440282L 16.0263 -0.440282ZM 8.29134 -0.440282L 7.73494 -0.440282L 7.73494 0.440282L 8.29134 0.440282L 8.29134 -0.440282ZM 7.73494 -0.440282L 0 -0.440282L 0 0.440282L 7.73494 0.440282L 7.73494 -0.440282ZM -0.433516 0.0768896L 1.01331 8.23434L 1.88034 8.08056L 0.433516 -0.0768896L -0.433516 0.0768896ZM 1.45159 8.59771L 8.0179 8.5266L 8.00837 7.64608L 1.44206 7.71719L 1.45159 8.59771ZM 8.00837 8.5266L 14.5747 8.59771L 14.5842 7.71719L 8.0179 7.64608L 8.00837 8.5266ZM 15.013 8.23434L 16.4598 0.0768895L 15.5928 -0.0768895L 14.1459 8.08056L 15.013 8.23434Z"/>
<path id="path11_fill" fill-rule="evenodd" d="M 2.41177 4.82354C 3.74375 4.82354 4.82354 3.74375 4.82354 2.41177C 4.82354 1.07979 3.74375 0 2.41177 0C 1.07979 0 0 1.07979 0 2.41177C 0 3.74375 1.07979 4.82354 2.41177 4.82354Z"/>
<path id="path12_stroke_2x" d="M 2.41177 6.24222C 4.52727 6.24222 6.24222 4.52727 6.24222 2.41177L 3.40485 2.41177C 3.40485 2.96023 2.96023 3.40485 2.41177 3.40485L 2.41177 6.24222ZM 6.24222 2.41177C 6.24222 0.296266 4.52727 -1.41869 2.41177 -1.41869L 2.41177 1.41869C 2.96023 1.41869 3.40485 1.8633 3.40485 2.41177L 6.24222 2.41177ZM 2.41177 -1.41869C 0.296266 -1.41869 -1.41869 0.296266 -1.41869 2.41177L 1.41869 2.41177C 1.41869 1.8633 1.8633 1.41869 2.41177 1.41869L 2.41177 -1.41869ZM -1.41869 2.41177C -1.41869 4.52727 0.296266 6.24222 2.41177 6.24222L 2.41177 3.40485C 1.8633 3.40485 1.41869 2.96023 1.41869 2.41177L -1.41869 2.41177Z"/>
<path id="path13_fill" fill-rule="evenodd" d="M 1.13495 2.2699C 1.76177 2.2699 2.2699 1.76177 2.2699 1.13495C 2.2699 0.508134 1.76177 0 1.13495 0C 0.508134 0 0 0.508134 0 1.13495C 0 1.76177 0.508134 2.2699 1.13495 2.2699Z"/>
<path id="path14_fill" fill-rule="evenodd" d="M 15.224 12.7696C 15.1646 13.1389 15.0807 13.5278 14.9728 13.9364C 14.8647 14.3447 14.7378 14.7169 14.5921 15.0528C 14.4463 15.3884 14.2841 15.6595 14.1061 15.8667C 13.9277 16.0737 13.7359 16.1606 13.5307 16.1272C 13.3687 16.1044 13.2659 15.9981 13.223 15.8082C 13.1796 15.6176 13.1796 15.3827 13.223 15.103C 13.2659 14.8232 13.3496 14.507 13.474 14.1545C 13.5981 13.8021 13.7494 13.4522 13.9277 13.1055C 14.1061 12.7583 14.3086 12.4257 14.5354 12.1067C 14.7623 11.7879 14.9997 11.5219 15.2483 11.3093C 15.3024 11.3764 15.3266 11.5442 15.3213 11.813C 15.3155 12.0815 15.2832 12.4005 15.224 12.7696ZM 20.7174 5.48433C 20.5715 5.31652 20.3932 5.22154 20.1825 5.19896C 19.972 5.1766 19.7584 5.2997 19.5426 5.56824C 19.402 5.83679 19.2237 6.09426 19.0077 6.34045C 18.7916 6.58684 18.5675 6.81045 18.3352 7.01192C 18.1029 7.21317 17.8815 7.38695 17.6708 7.53219C 17.4603 7.67785 17.2954 7.78412 17.1766 7.8512C 17.1334 7.49321 17.109 7.10711 17.1038 6.6929C 17.0981 6.2789 17.1063 5.85936 17.1281 5.43408C 17.1604 4.82969 17.2278 4.21997 17.3306 3.6043C 17.4332 2.98883 17.5818 2.38445 17.7763 1.79113C 17.7763 1.47808 17.7058 1.22337 17.5656 1.02745C 17.4249 0.831733 17.2549 0.708427 17.0551 0.658168C 16.8551 0.607908 16.6501 0.635807 16.4394 0.742075C 16.2287 0.848557 16.0478 1.04171 15.8965 1.32112C 15.767 1.69061 15.6183 2.10461 15.451 2.56333C 15.2833 3.02227 15.0943 3.48951 14.8838 3.96506C 14.6731 4.44103 14.4381 4.90252 14.1789 5.34995C 13.9195 5.79782 13.636 6.1952 13.328 6.54191C 13.0203 6.88882 12.6852 7.16035 12.3236 7.35607C 11.9614 7.55199 11.5702 7.63867 11.1487 7.61631C 10.9541 7.5603 10.8137 7.40931 10.7273 7.16291C 10.6408 6.91694 10.5896 6.60899 10.5735 6.23971C 10.5573 5.87044 10.5735 5.46474 10.6221 5.02263C 10.6708 4.58073 10.7355 4.14139 10.8165 3.70503C 10.8975 3.26845 10.9867 2.85445 11.0838 2.46282C 11.181 2.07118 11.2727 1.74087 11.3592 1.47233C 11.489 1.14798 11.489 0.876242 11.3592 0.658168C 11.2297 0.439881 11.0515 0.29464 10.8248 0.221594C 10.5978 0.148973 10.3599 0.151955 10.1116 0.230112C 9.86307 0.308483 9.68484 0.481834 9.57691 0.750381C 9.39313 1.20953 9.22558 1.72405 9.07449 2.29479C 8.92318 2.86553 8.80169 3.45608 8.71 4.06579C 8.61791 4.67593 8.56651 5.28032 8.55582 5.87895C 8.55521 5.91793 8.55706 5.95498 8.55685 5.99374C 8.32126 6.64434 8.09677 7.13608 7.88359 7.4651C 7.60812 7.8906 7.29729 8.07524 6.95172 8.01902C 6.80021 7.95194 6.70071 7.79541 6.6522 7.54901C 6.60307 7.30304 6.58703 7.00084 6.60307 6.64243C 6.61972 6.28465 6.66022 5.87895 6.72477 5.42556C 6.78993 4.97237 6.87052 4.50236 6.96776 4.01553C 7.0652 3.52848 7.16778 3.03931 7.27571 2.54672C 7.38363 2.05435 7.48087 1.58988 7.56762 1.15331C 7.55673 0.761668 7.44592 0.462455 7.23521 0.255242C 7.0247 0.0484547 6.73011 -0.0326841 6.35226 0.0118251C 6.09303 0.123844 5.90103 0.26951 5.77686 0.448399C 5.65249 0.627288 5.55258 0.856862 5.47713 1.13648C 5.43376 1.28215 5.369 1.57306 5.28266 2.00963C 5.19611 2.44578 5.08551 2.94688 4.95045 3.51187C 4.81539 4.07729 4.65607 4.66741 4.47249 5.28287C 4.2887 5.89833 4.08354 6.45545 3.85679 6.95314C 3.62984 7.45105 3.3813 7.8512 3.11138 8.1534C 2.84125 8.45538 2.54954 8.57869 2.23624 8.52268C 2.06336 8.48903 1.95276 8.30439 1.90424 7.96876C 1.85552 7.63292 1.8475 7.21913 1.87978 6.72655C 1.91226 6.23418 1.97701 5.6941 2.07425 5.10675C 2.17149 4.51919 2.27119 3.9625 2.37398 3.43627C 2.47656 2.91046 2.57113 2.44578 2.65767 2.04307C 2.74401 1.64014 2.80343 1.37159 2.83591 1.23743C 2.83591 0.912871 2.76539 0.652844 2.62519 0.456705C 2.48458 0.261205 2.31457 0.137899 2.11475 0.087427C 1.91472 0.0371677 1.70956 0.0650659 1.49905 0.171334C 1.28834 0.277816 1.10743 0.470973 0.956129 0.750381C 0.902063 1.05258 0.831756 1.40247 0.745415 1.79965C 0.658868 2.19683 0.575404 2.60529 0.494408 3.02504C 0.413411 3.44479 0.337554 3.85602 0.267453 4.25895C 0.197146 4.66187 0.145958 5.01433 0.113477 5.31652C 0.091892 5.55142 0.0674286 5.83977 0.0407038 6.18094C 0.0135679 6.52253 0 6.88329 0 7.26364C 0 7.64442 0.0269303 8.022 0.0812021 8.39682C 0.135063 8.77184 0.2323 9.11599 0.372707 9.42905C 0.513115 9.74253 0.710261 9.99979 0.964352 10.2013C 1.21803 10.4027 1.53955 10.5145 1.9285 10.5371C 2.32793 10.5592 2.67638 10.5288 2.97364 10.4447C 3.2707 10.3608 3.54062 10.2291 3.78381 10.05C 4.0268 9.87137 4.24821 9.65862 4.44823 9.41222C 4.64784 9.16625 4.8452 8.89771 5.03967 8.60658C 5.22325 9.03208 5.46089 9.36196 5.7526 9.59708C 6.04431 9.83197 6.35226 9.9721 6.67625 10.0166C 7.00024 10.0611 7.32998 10.0141 7.66486 9.87393C 7.99954 9.73422 8.30194 9.49634 8.57227 9.1605C 8.75009 8.95457 8.91784 8.72052 9.07531 8.46177C 9.14212 8.58294 9.21325 8.69986 9.29322 8.80783C 9.558 9.16625 9.91735 9.41222 10.371 9.5466C 10.857 9.68098 11.3321 9.70356 11.7969 9.6139C 12.2613 9.52446 12.7043 9.36196 13.1255 9.12707C 13.547 8.89195 13.9384 8.60957 14.3004 8.27926C 14.6622 7.94917 14.9782 7.60523 15.2483 7.24682C 15.2374 7.50429 15.2321 7.74792 15.2321 7.97707C 15.2321 8.20664 15.2267 8.45538 15.216 8.72414C 14.6756 9.11599 14.1653 9.586 13.6847 10.1342C 13.2039 10.6823 12.7824 11.2671 12.4206 11.8883C 12.0588 12.5093 11.7751 13.1389 11.5702 13.7767C 11.3648 14.4149 11.2647 15.0106 11.2702 15.5647C 11.2756 16.1186 11.4024 16.6025 11.651 17.0165C 11.8993 17.4307 12.3045 17.7271 12.8663 17.9063C 13.4497 18.0966 13.9626 18.102 14.4059 17.9231C 14.8487 17.744 15.2347 17.4473 15.5643 17.0333C 15.8938 16.6193 16.1637 16.1186 16.3747 15.5311C 16.5852 14.9435 16.7527 14.3308 16.8769 13.693C 17.001 13.0552 17.0794 12.428 17.1119 11.813C 17.1443 11.1973 17.1443 10.6487 17.1119 10.1676C 18.0408 9.76489 18.8023 9.2557 19.3966 8.64002C 19.9907 8.02498 20.4823 7.37566 20.8712 6.6929C 20.99 6.52508 21.0305 6.32362 20.9929 6.08872C 20.9549 5.85361 20.8632 5.65215 20.7174 5.48433Z"/>
<path id="path15_fill" fill-rule="evenodd" d="M 7.681 10.8411C 7.48653 11.227 7.21907 11.563 6.87885 11.8482C 6.53862 12.1335 6.14166 12.3659 5.68795 12.5448C 5.23425 12.7241 4.77767 12.8444 4.31862 12.9058C 3.85936 12.9673 3.41368 12.962 2.98176 12.8889C 2.54965 12.8163 2.18208 12.6681 1.87988 12.444L 2.22031 8.76788C 2.53341 8.65608 2.92749 8.54129 3.40299 8.42373C 3.87828 8.30639 4.36713 8.22227 4.86956 8.17201C 5.37198 8.12154 5.84707 8.1275 6.29563 8.18884C 6.74358 8.25038 7.09758 8.3986 7.35681 8.63372C 7.49722 8.76788 7.61624 8.91334 7.71348 9.07008C 7.81051 9.22682 7.86992 9.3891 7.89172 9.55691C 7.94558 10.0269 7.87547 10.455 7.681 10.8411ZM 2.73805 3.01014C 2.965 2.86469 3.2378 2.73585 3.55644 2.62383C 3.87508 2.51223 4.20195 2.43365 4.53683 2.38893C 4.8715 2.34442 5.19837 2.33846 5.51722 2.37211C 5.83565 2.40575 6.11688 2.49797 6.35987 2.64896C 6.60286 2.80016 6.78376 3.01845 6.90259 3.30361C 7.02141 3.58919 7.05389 3.95016 6.99982 4.38652C 6.95665 4.73344 6.82406 5.02733 6.60286 5.26776C 6.38145 5.50862 6.11112 5.70987 5.79269 5.87215C 5.47405 6.03464 5.13649 6.16327 4.78002 6.25804C 4.42335 6.35345 4.08025 6.42351 3.75092 6.46802C 3.42138 6.51296 3.13522 6.54107 2.89223 6.55193C 2.64903 6.56322 2.48951 6.56875 2.41406 6.56875L 2.73805 3.01014ZM 9.43095 8.46568C 9.25807 8.07425 9.02577 7.7301 8.73426 7.43323C 8.44255 7.13679 8.09657 6.92148 7.69714 6.7871C 7.86982 6.64165 8.04004 6.41229 8.20758 6.0988C 8.37492 5.78575 8.518 5.44416 8.63682 5.07488C 8.75564 4.70539 8.83684 4.33356 8.88001 3.95853C 8.92298 3.58371 8.90674 3.26193 8.8315 2.99317C 8.64751 2.32191 8.35868 1.79589 7.96438 1.41532C 7.56988 1.03497 7.11104 0.771962 6.58703 0.626296C 6.06302 0.481268 5.48515 0.450175 4.85321 0.534083C 4.22128 0.61799 3.57556 0.783037 2.9169 1.02922C 2.9169 0.973426 2.92225 0.914648 2.93314 0.853101C 2.94363 0.791768 2.94918 0.72724 2.94918 0.659944C 2.94918 0.492129 2.86818 0.346888 2.70619 0.223583C 2.5442 0.10049 2.35774 0.0278699 2.14723 0.0052958C 1.93652 -0.0168523 1.73115 0.0304254 1.53133 0.147981C 1.3313 0.265537 1.19357 0.481268 1.11812 0.794111C 1.03157 1.80143 0.945233 2.84793 0.858892 3.93318C 0.772345 5.01887 0.680659 6.11563 0.583422 7.22368C 0.486185 8.33151 0.388948 9.43104 0.291711 10.522C 0.194474 11.6133 0.0972369 12.6623 0 13.6694C 0.0324808 13.9716 0.113477 14.2067 0.243195 14.3745C 0.372707 14.5426 0.52401 14.6433 0.696899 14.6767C 0.869582 14.7104 1.05069 14.6793 1.23962 14.5843C 1.42854 14.4895 1.59341 14.3241 1.73402 14.0892C 2.16594 14.3354 2.65212 14.4949 3.19237 14.5677C 3.73242 14.6403 4.28048 14.6403 4.83718 14.5677C 5.39326 14.4949 5.94153 14.3579 6.48178 14.1563C 7.02182 13.955 7.51335 13.7031 7.95637 13.4011C 8.39917 13.0989 8.77188 12.7545 9.07449 12.3686C 9.37689 11.9823 9.57671 11.5656 9.67394 11.1181C 9.77118 10.6592 9.79811 10.2005 9.75494 9.74154C 9.71177 9.28281 9.60364 8.85774 9.43095 8.46568Z"/>
<path id="path16_fill" fill-rule="evenodd" d="M 17.2441 4.84458C 17.2764 4.58732 17.3251 4.31579 17.3899 4.03042C 17.4546 3.74505 17.5358 3.46798 17.6331 3.19944C 17.7301 2.93089 17.8436 2.69876 17.9733 2.50284C 18.103 2.30712 18.2408 2.16721 18.3865 2.08309C 18.5325 1.99939 18.6807 2.0077 18.8322 2.10821C 18.9942 2.20916 19.0939 2.4217 19.1319 2.74604C 19.1695 3.07102 19.1319 3.41772 19.0185 3.787C 18.905 4.15649 18.7025 4.5032 18.4108 4.82775C 18.1193 5.15252 17.7248 5.36484 17.2279 5.46558C 17.2061 5.30926 17.2117 5.10205 17.2441 4.84458ZM 22.8593 5.53265C 22.681 5.47707 22.511 5.47132 22.3488 5.51604C 22.1868 5.56076 22.084 5.67832 22.0411 5.86871C 21.9543 6.2267 21.8166 6.59321 21.6277 6.96802C 21.4385 7.34305 21.2064 7.69827 20.9312 8.03412C 20.6557 8.36975 20.3449 8.6664 19.9993 8.92366C 19.6535 9.18114 19.2917 9.36577 18.9137 9.47758C 18.5352 9.60088 18.2221 9.61473 17.9738 9.51953C 17.7252 9.42476 17.5281 9.26227 17.3823 9.03291C 17.2366 8.80355 17.1311 8.52649 17.0664 8.20193C 17.0014 7.87738 16.9636 7.54175 16.9529 7.19462C 17.5686 7.23955 18.1169 7.12498 18.5977 6.85047C 19.0781 6.5766 19.486 6.21264 19.8211 5.75946C 20.1557 5.30627 20.4096 4.79708 20.5825 4.23188C 20.7552 3.66688 20.8526 3.10445 20.8742 2.54478C 20.8849 2.01876 20.8095 1.5741 20.6475 1.21036C 20.4855 0.846829 20.2666 0.563802 19.9911 0.362552C 19.7158 0.161089 19.3996 0.043533 19.0432 0.0100979C 18.6869 -0.0235503 18.3247 0.0269219 17.9575 0.161089C 17.5143 0.317829 17.1391 0.57232 16.8314 0.924987C 16.5234 1.27744 16.2667 1.68612 16.0617 2.15038C 15.8564 2.61485 15.6944 3.11552 15.5755 3.65262C 15.4565 4.18992 15.3702 4.71871 15.3163 5.23919C 15.2676 5.70622 15.2417 6.1528 15.2324 6.58384C 15.2094 6.63857 15.187 6.69117 15.1623 6.74974C 14.9948 7.14734 14.8001 7.53621 14.5789 7.91656C 14.3575 8.29713 14.1116 8.61614 13.8417 8.8734C 13.5716 9.13088 13.2908 9.22032 12.9991 9.14195C 12.8262 9.09744 12.7318 8.89001 12.7156 8.52095C 12.6993 8.15146 12.718 7.69274 12.7721 7.14436C 12.8262 6.59619 12.8883 6.00266 12.9586 5.36484C 13.0287 4.72701 13.0638 4.1173 13.0638 3.53527C 13.0638 3.03162 12.9719 2.54776 12.7884 2.08308C 12.6046 1.61903 12.3534 1.23272 12.0349 0.924987C 11.7161 0.617042 11.3462 0.412811 10.925 0.312292C 10.5036 0.211348 10.0499 0.278644 9.56391 0.513542C 9.07752 0.748653 8.69145 1.07875 8.40529 1.50403C 8.11872 1.92953 7.85682 2.37697 7.61938 2.84698C 7.53262 2.48877 7.40599 2.15613 7.23845 1.84818C 7.0709 1.54045 6.86594 1.2719 6.62275 1.04233C 6.37955 0.813181 6.10655 0.634079 5.80456 0.505237C 5.50196 0.37682 5.18311 0.312292 4.84823 0.312292C 4.52424 0.312292 4.22451 0.37682 3.94904 0.505237C 3.67357 0.634079 3.42236 0.798913 3.1954 1.00038C 2.96866 1.20205 2.76349 1.42843 2.57971 1.68037C 2.39613 1.93209 2.23373 2.18126 2.09373 2.42723C 2.07173 2.13632 2.04747 1.88183 2.02075 1.66333C 1.99361 1.44526 1.94489 1.26062 1.87479 1.10963C 1.80448 0.958422 1.70478 0.843848 1.57506 0.765477C 1.44535 0.68732 1.26177 0.647922 1.02433 0.647922C 0.9053 0.647922 0.786272 0.673052 0.667656 0.723311C 0.548628 0.773783 0.443168 0.843848 0.351687 0.933292C 0.259795 1.02316 0.189694 1.13199 0.141178 1.26062C 0.0922513 1.38925 0.0790945 1.53768 0.100474 1.7055C 0.111164 1.8288 0.141178 1.97681 0.189694 2.15038C 0.23821 2.32394 0.284053 2.55075 0.327429 2.83015C 0.370394 3.10999 0.405547 3.4486 0.432683 3.84577C 0.459614 4.24316 0.467631 4.73 0.456941 5.30627C 0.446046 5.88276 0.405547 6.55679 0.335446 7.329C 0.264934 8.1012 0.154335 8.9965 0.00323739 10.0147C -0.018348 10.2498 0.0679935 10.4402 0.262673 10.5856C 0.456941 10.7309 0.678345 10.8148 0.926885 10.8373C 1.17522 10.8597 1.4104 10.8148 1.6318 10.7032C 1.85321 10.591 1.98025 10.3952 2.01253 10.1156C 2.04501 9.5896 2.10709 9.03014 2.19898 8.43683C 2.29067 7.84394 2.40415 7.25638 2.53921 6.67435C 2.67427 6.09253 2.82804 5.53862 3.00114 5.01238C 3.17382 4.48637 3.36562 4.02211 3.57633 3.61918C 3.78705 3.21626 4.00578 2.89468 4.23253 2.65403C 4.45949 2.41338 4.69692 2.29306 4.94567 2.29306C 5.24807 2.29306 5.48284 2.43553 5.65059 2.7209C 5.81772 3.00649 5.93654 3.37321 6.00705 3.82043C 6.07715 4.26829 6.10943 4.75811 6.10429 5.28945C 6.09853 5.82101 6.07715 6.33297 6.03933 6.82534C 6.0015 7.31792 5.95833 7.75705 5.90961 8.14315C 5.86109 8.52925 5.82594 8.79525 5.80456 8.94049C 5.80456 9.19796 5.89892 9.40198 6.08784 9.55318C 6.27677 9.70417 6.48748 9.79383 6.71999 9.82173C 6.95229 9.84984 7.17081 9.8049 7.37618 9.68735C 7.58135 9.56979 7.70017 9.37152 7.73265 9.09148C 7.84058 8.28584 7.98921 7.47743 8.17813 6.66604C 8.36705 5.85465 8.58332 5.12739 8.82651 4.48381C 9.0695 3.84024 9.33942 3.31422 9.63668 2.90576C 9.93374 2.49751 10.2497 2.29306 10.5848 2.29306C 10.7573 2.29306 10.8899 2.41637 10.9816 2.66234C 11.0732 2.90852 11.1193 3.24415 11.1193 3.66944C 11.1193 3.98292 11.095 4.30471 11.0465 4.6348C 10.9978 4.96489 10.9413 5.30627 10.8763 5.65873C 10.8115 6.01139 10.7548 6.37215 10.7061 6.74143C 10.6576 7.11092 10.6333 7.49681 10.6333 7.89974C 10.6333 8.17957 10.6602 8.50413 10.7143 8.8734C 10.7682 9.24247 10.8707 9.59258 11.0221 9.92246C 11.1734 10.2528 11.3812 10.5324 11.6462 10.7617C 11.9108 10.9911 12.2481 11.1059 12.6586 11.1059C 13.2745 11.1059 13.8199 10.9687 14.2954 10.6947C 14.7707 10.4206 15.1786 10.0626 15.5188 9.62048C 15.5365 9.59726 15.5525 9.57256 15.5698 9.54956C 15.5959 9.61494 15.6189 9.68415 15.6483 9.74634C 15.8806 10.2387 16.1966 10.6191 16.5964 10.8878C 16.9959 11.1564 17.4658 11.3046 18.0063 11.3327C 18.5463 11.3604 19.1349 11.2569 19.7726 11.022C 20.2476 10.8429 20.6608 10.6191 21.012 10.3505C 21.3629 10.082 21.6789 9.75464 21.9599 9.36854C 22.2409 8.98244 22.4972 8.53756 22.7297 8.03412C 22.962 7.53025 23.1968 6.95418 23.4345 6.30486C 23.4776 6.12618 23.4371 5.96667 23.3132 5.82654C 23.1888 5.68684 23.0377 5.58888 22.8593 5.53265Z"/>
<path id="path17_fill" fill-rule="evenodd" d="M 5.21847 3.23964C 5.1642 3.56995 5.09143 3.9339 4.99974 4.33086C 4.90765 4.72825 4.7917 5.13948 4.65129 5.56477C 4.51089 5.99006 4.338 6.37339 4.13283 6.71456C 3.92746 7.05615 3.69249 7.32725 3.42792 7.52872C 3.16314 7.73018 2.85806 7.81409 2.51229 7.78044C 2.3394 7.75829 2.20701 7.6352 2.11532 7.41116C 2.02343 7.18755 1.97491 6.90197 1.96936 6.55505C 1.96402 6.20835 1.99362 5.82778 2.05858 5.41357C 2.12334 4.99978 2.22325 4.59387 2.35852 4.19648C 2.49337 3.79952 2.65824 3.4328 2.85251 3.09696C 3.04699 2.76133 3.27106 2.50109 3.52515 2.31645C 3.77883 2.13181 4.05718 2.04535 4.35958 2.05621C 4.66198 2.06749 4.98597 2.22402 5.33195 2.52622C 5.30996 2.67188 5.27254 2.90976 5.21847 3.23964ZM 10.9791 4.52383C 10.8116 4.43438 10.6389 4.41501 10.4607 4.46526C 10.2826 4.51552 10.1554 4.68632 10.0799 4.97723C 10.0368 5.29071 9.93953 5.65977 9.78843 6.08506C 9.63693 6.51035 9.45047 6.91349 9.22927 7.29363C 9.00766 7.67419 8.75378 7.99044 8.46762 8.24216C 8.18125 8.4941 7.87618 8.60888 7.55219 8.5861C 7.28186 8.56395 7.09273 8.42126 6.98501 8.15826C 6.87667 7.89525 6.82014 7.56537 6.81479 7.16776C 6.80924 6.7708 6.84727 6.32315 6.92807 5.82503C 7.00927 5.32713 7.1065 4.83199 7.21978 4.33919C 7.33325 3.84703 7.4494 3.37404 7.56843 2.92086C 7.68705 2.46767 7.78408 2.08434 7.86014 1.77107C 7.94648 1.49124 7.91935 1.25357 7.77894 1.05743C 7.63853 0.861931 7.46297 0.721802 7.25246 0.637894C 7.04154 0.553987 6.82816 0.531626 6.6121 0.570811C 6.39604 0.609996 6.25584 0.73032 6.19087 0.93157C 5.55339 0.36083 4.94036 0.0530981 4.3518 0.00837586C 3.76283 -0.0363464 3.21991 0.0980333 2.72324 0.411302C 2.22616 0.72457 1.78602 1.17776 1.40262 1.77107C 1.01902 2.36439 0.708397 3.01051 0.470752 3.70989C 0.233108 4.40926 0.084477 5.12289 0.0252715 5.85016C -0.0343453 6.57764 0.0114979 7.24081 0.163007 7.83945C 0.31431 8.43809 0.581352 8.9279 0.96516 9.30804C 1.34835 9.68861 1.86969 9.879 2.52876 9.879C 2.82047 9.879 3.10129 9.81745 3.37141 9.69436C 3.64133 9.57105 3.88987 9.4256 4.11683 9.25778C 4.34358 9.08997 4.5434 8.91364 4.71649 8.729C 4.88897 8.54436 5.02424 8.3906 5.12147 8.26729C 5.19692 8.67022 5.32129 9.01181 5.49418 9.29143C 5.66686 9.57105 5.86422 9.80084 6.08562 9.97952C 6.30682 10.1584 6.53932 10.29 6.78231 10.3741C 7.02551 10.458 7.26048 10.5 7.48723 10.5C 7.995 10.5 8.47008 10.3209 8.9133 9.96269C 9.35611 9.60491 9.75308 9.16536 10.1044 8.64509C 10.4553 8.12461 10.7444 7.57644 10.9711 6.99995C 11.1981 6.42367 11.3492 5.91171 11.4248 5.46385C 11.5005 5.29603 11.4869 5.11991 11.3843 4.93527C 11.2815 4.75064 11.1467 4.6137 10.9791 4.52383Z"/>
<path id="path18_fill" fill-rule="evenodd" d="M 25.7325 18.2598C 25.6408 18.6402 25.4975 18.9622 25.3031 19.225C 25.1088 19.488 24.8656 19.6251 24.5739 19.6364C 24.3903 19.6475 24.2499 19.5468 24.1527 19.3342C 24.0554 19.1215 23.988 18.8474 23.9502 18.5118C 23.9121 18.1759 23.8959 17.8009 23.9015 17.3869C 23.9068 16.9729 23.923 16.5644 23.9502 16.1615C 23.9769 15.7588 24.0094 15.3835 24.0474 15.0368C 24.085 14.6897 24.1146 14.4216 24.1364 14.2312C 24.5036 14.2759 24.8091 14.4408 25.0518 14.7263C 25.295 15.0117 25.4813 15.3501 25.611 15.742C 25.7407 16.1336 25.8162 16.5561 25.838 17.0093C 25.8593 17.4625 25.8242 17.8793 25.7325 18.2598ZM 19.8663 18.2598C 19.7746 18.6402 19.6313 18.9622 19.4369 19.225C 19.2426 19.488 18.9994 19.6251 18.7077 19.6364C 18.5241 19.6475 18.3837 19.5468 18.2865 19.3342C 18.1892 19.1215 18.1216 18.8474 18.084 18.5118C 18.0457 18.1759 18.0297 17.8009 18.0352 17.3869C 18.0406 16.9729 18.0568 16.5644 18.084 16.1615C 18.1107 15.7588 18.1432 15.3835 18.1812 15.0368C 18.2188 14.6897 18.2484 14.4216 18.2702 14.2312C 18.6374 14.2759 18.9429 14.4408 19.1856 14.7263C 19.4288 15.0117 19.6151 15.3501 19.7448 15.742C 19.8745 16.1336 19.95 16.5561 19.9718 17.0093C 19.9931 17.4625 19.958 17.8793 19.8663 18.2598ZM 13.8467 8.72524C 13.8356 8.99357 13.8113 9.23145 13.7735 9.43845C 13.7357 9.64588 13.6845 9.77706 13.6197 9.83307C 13.5007 9.76578 13.3547 9.59264 13.182 9.31259C 13.0092 9.03297 12.8743 8.71651 12.7769 8.36405C 12.6798 8.0116 12.6498 7.6649 12.6878 7.3233C 12.7255 6.98214 12.8959 6.71657 13.1983 6.52597C 13.3169 6.45889 13.4195 6.48402 13.5062 6.60157C 13.5926 6.71913 13.6627 6.88971 13.7169 7.11354C 13.7708 7.33757 13.8084 7.59483 13.8302 7.88574C 13.8518 8.17686 13.8572 8.45648 13.8467 8.72524ZM 12.4125 12.074C 12.2449 12.2585 12.0585 12.418 11.8535 12.5524C 11.6481 12.6867 11.4374 12.7875 11.2216 12.8545C 11.0053 12.9218 10.8108 12.9385 10.6381 12.9048C 10.1519 12.8043 9.77924 12.5858 9.52022 12.2502C 9.26078 11.9145 9.09591 11.5201 9.02581 11.0669C 8.9555 10.6135 8.96352 10.1295 9.05027 9.61474C 9.13641 9.10001 9.28216 8.62169 9.48753 8.17958C 9.6929 7.73747 9.94144 7.35691 10.2329 7.0381C 10.5247 6.71908 10.8431 6.5206 11.1891 6.44202C 11.0594 7.01276 11.0162 7.6033 11.0594 8.21302C 11.1025 8.82294 11.2431 9.39645 11.4808 9.93354C 11.6319 10.2585 11.813 10.5548 12.0235 10.8233C 12.2342 11.0921 12.4908 11.3214 12.7934 11.5116C 12.7068 11.702 12.5798 11.8894 12.4125 12.074ZM 30.3428 8.89307C 30.375 8.63581 30.4236 8.36407 30.4885 8.0787C 30.5533 7.79355 30.6345 7.51648 30.7315 7.24794C 30.8287 6.97918 30.9422 6.74705 31.0719 6.55133C 31.2017 6.35562 31.3392 6.21549 31.4849 6.13158C 31.6309 6.04768 31.7793 6.05598 31.9306 6.15671C 32.0926 6.25766 32.1925 6.47019 32.2304 6.79454C 32.2682 7.11931 32.2304 7.46601 32.1171 7.8355C 32.0036 8.20478 31.8011 8.55169 31.5094 8.87604C 31.2179 9.20102 30.8234 9.41334 30.3265 9.51407C 30.3047 9.35755 30.3103 9.15055 30.3428 8.89307ZM 36.873 8.89307C 36.9054 8.63581 36.9539 8.36407 37.0187 8.0787C 37.0837 7.79355 37.1647 7.51648 37.2619 7.24794C 37.3591 6.97918 37.4724 6.74705 37.6021 6.55133C 37.7318 6.35562 37.8696 6.21549 38.0153 6.13158C 38.1613 6.04768 38.3097 6.05598 38.461 6.15671C 38.623 6.25766 38.7227 6.47019 38.7607 6.79454C 38.7986 7.11931 38.7607 7.46601 38.6473 7.8355C 38.5338 8.20478 38.3313 8.55169 38.0396 8.87604C 37.7481 9.20102 37.3536 9.41334 36.8567 9.51407C 36.8351 9.35755 36.8405 9.15055 36.873 8.89307ZM 42.9417 9.87502C 42.8173 9.73531 42.6662 9.63735 42.488 9.58113C 42.3097 9.52533 42.1397 9.51979 41.9773 9.56452C 41.8153 9.60924 41.7126 9.72679 41.6696 9.91697C 41.583 10.2752 41.4453 10.6417 41.2564 11.0163C 41.0673 11.3915 40.8352 11.7467 40.5597 12.0824C 40.2842 12.418 39.9734 12.7149 39.628 12.9721C 39.282 13.2296 38.9202 13.4142 38.5424 13.5258C 38.1639 13.6494 37.8506 13.6632 37.6023 13.568C 37.3538 13.473 37.1566 13.3107 37.0109 13.0814C 36.8651 12.8518 36.7598 12.575 36.6949 12.2502C 36.6301 11.9258 36.5921 11.5902 36.5814 11.2431C 37.1973 11.288 37.7456 11.1735 38.2262 10.8989C 38.7066 10.6249 39.1147 10.2609 39.4498 9.80772C 39.7845 9.35475 40.0384 8.84555 40.2112 8.28035C 40.3839 7.71515 40.4812 7.15292 40.503 6.59326C 40.5134 6.06724 40.438 5.62236 40.276 5.25862C 40.114 4.89509 39.8953 4.61227 39.6198 4.41102C 39.3443 4.20935 39.0284 4.09201 38.6717 4.05836C 38.3154 4.02471 37.9532 4.0754 37.5861 4.20935C 37.143 4.3663 36.7679 4.62079 36.4601 4.97325C 36.1522 5.32591 35.8954 5.73459 35.6902 6.19864C 35.4849 6.66332 35.3229 7.16378 35.2041 7.70109C 35.085 8.23818 34.9987 8.76718 34.945 9.28745C 34.8924 9.79239 34.8638 10.2756 34.8575 10.7382C 34.8165 10.8304 34.773 10.923 34.7259 11.0163C 34.5368 11.3915 34.3047 11.7467 34.0292 12.0824C 33.7539 12.418 33.4431 12.7149 33.0975 12.9721C 32.7518 13.2296 32.3899 13.4142 32.0119 13.5258C 31.6334 13.6494 31.3203 13.6632 31.072 13.568C 30.8235 13.473 30.6263 13.3107 30.4806 13.0814C 30.3348 12.8518 30.2293 12.575 30.1646 12.2502C 30.0996 11.9258 30.0618 11.5902 30.0511 11.2431C 30.6668 11.288 31.2151 11.1735 31.6959 10.8989C 32.1763 10.6249 32.5842 10.2609 32.9193 9.80772C 33.254 9.35475 33.5079 8.84555 33.6807 8.28035C 33.8534 7.71515 33.9509 7.15292 33.9725 6.59326C 33.9831 6.06724 33.9077 5.62236 33.7457 5.25862C 33.5835 4.89509 33.3648 4.61227 33.0893 4.41102C 32.8138 4.20935 32.4979 4.09201 32.1414 4.05836C 31.7849 4.02471 31.4229 4.0754 31.0558 4.20935C 30.6125 4.3663 30.2374 4.62079 29.9296 4.97325C 29.6217 5.32591 29.3649 5.73459 29.1599 6.19864C 28.9546 6.66332 28.7926 7.16378 28.6738 7.70109C 28.5547 8.23818 28.4684 8.76718 28.4145 9.28745C 28.3839 9.58091 28.3633 9.86543 28.3483 10.1448C 28.2439 10.2368 28.1421 10.3295 28.0336 10.4204C 27.6611 10.7339 27.2693 11.0163 26.8589 11.2682C 26.448 11.5202 26.0214 11.7272 25.5788 11.8894C 25.1356 12.0517 24.6819 12.1497 24.2175 12.1831L 25.2224 1.03684C 25.2871 0.801728 25.2546 0.594941 25.1251 0.41584C 24.9954 0.236738 24.8279 0.113645 24.6227 0.0465618C 24.4175 -0.0207345 24.1986 -0.0149845 23.9663 0.0631729C 23.734 0.141756 23.5424 0.320858 23.3911 0.600266C 23.3155 1.02577 23.2371 1.60758 23.1563 2.34614C 23.0751 3.08469 22.9941 3.89054 22.9131 4.76348C 22.8321 5.63641 22.7511 6.53725 22.6702 7.46598C 22.5892 8.39514 22.5186 9.26232 22.4594 10.068C 22.4568 10.1037 22.4545 10.1361 22.4518 10.1715C 22.3573 10.2545 22.2656 10.3382 22.1677 10.4204C 21.7952 10.7339 21.4032 11.0163 20.9929 11.2682C 20.5821 11.5202 20.1556 11.7272 19.713 11.8894C 19.2697 12.0517 18.8158 12.1497 18.3516 12.1831L 19.3563 1.03684C 19.4212 0.801728 19.3888 0.594941 19.2593 0.41584C 19.1295 0.236738 18.9618 0.113645 18.7566 0.0465618C 18.5515 -0.0207345 18.3327 -0.0149845 18.1004 0.0631729C 17.8681 0.141756 17.6765 0.320858 17.5252 0.600266C 17.4496 1.02577 17.3713 1.60758 17.2905 2.34614C 17.2093 3.08469 17.1283 3.89054 17.0473 4.76348C 16.9661 5.63641 16.8853 6.53725 16.8041 7.46598C 16.7233 8.39514 16.6528 9.26232 16.5936 10.068C 16.5923 10.0841 16.5913 10.0988 16.5901 10.115C 16.4203 10.1966 16.2352 10.2681 16.0344 10.3282C 15.829 10.39 15.5969 10.4264 15.3377 10.4375C 15.3809 10.2358 15.4158 10.012 15.443 9.76577C 15.4699 9.51979 15.4917 9.26232 15.5079 8.99356C 15.5242 8.72523 15.5293 8.45647 15.5242 8.18792C 15.5184 7.91916 15.505 7.67319 15.4837 7.44915C 15.4294 6.96828 15.3297 6.51212 15.1839 6.08108C 15.038 5.65047 14.8408 5.28971 14.5925 4.99838C 14.3438 4.70747 14.0333 4.51154 13.6604 4.41102C 13.2879 4.31029 12.8529 4.34373 12.3563 4.51154C 11.6213 4.41102 10.9598 4.48109 10.371 4.72152C 9.78225 4.96239 9.27181 5.31186 8.83969 5.77058C 8.40777 6.22973 8.05398 6.76938 7.77851 7.39059C 7.50283 8.01159 7.31926 8.64963 7.22736 9.30406C 7.18851 9.58155 7.1696 9.85777 7.16384 10.1333C 6.99671 10.4881 6.81354 10.7982 6.61167 11.0585C 6.32551 11.4277 6.02845 11.7299 5.7205 11.9648C 5.41255 12.1999 5.10727 12.379 4.80507 12.5021C 4.50247 12.6254 4.23234 12.7093 3.9949 12.7538C 3.71388 12.8099 3.44376 12.8156 3.18453 12.7707C 2.9255 12.7262 2.68745 12.5973 2.4718 12.3846C 2.29871 12.228 2.16632 11.9761 2.07463 11.6292C 1.98274 11.2823 1.92888 10.8881 1.91264 10.4458C 1.89639 10.0036 1.91264 9.54194 1.96115 9.06086C 2.00987 8.57977 2.09334 8.12361 2.21236 7.69278C 2.33119 7.26196 2.48208 6.87586 2.66607 6.53427C 2.84944 6.19331 3.0655 5.94968 3.31425 5.80423C 3.45445 5.8268 3.5412 5.91327 3.57348 6.06426C 3.60596 6.21546 3.61397 6.39456 3.59773 6.60156C 3.5817 6.80877 3.55723 7.02131 3.52496 7.23939C 3.49248 7.45767 3.47624 7.63976 3.47624 7.785C 3.5303 8.08719 3.63556 8.3223 3.79221 8.49012C 3.94865 8.65793 4.12462 8.75611 4.31889 8.78379C 4.51336 8.8119 4.70496 8.76441 4.89429 8.64111C 5.08301 8.51823 5.23699 8.3223 5.35602 8.05354C 5.3667 8.06483 5.38295 8.07037 5.40453 8.07037L 5.63149 5.93861C 5.69624 5.64749 5.65287 5.39023 5.50177 5.1664C 5.35046 4.94258 5.15065 4.81374 4.90231 4.7803C 4.58881 4.31029 4.16491 4.06134 3.63021 4.03323C 3.09551 4.00533 2.54704 4.1872 1.98541 4.57884C 1.63963 4.83652 1.33456 5.19153 1.06998 5.64472C 0.804998 6.09812 0.589144 6.60156 0.421806 7.15548C 0.254057 7.7094 0.13544 8.2944 0.0653393 8.90987C -0.00496732 9.52533 -0.0185353 10.1242 0.0246355 10.7058C 0.0678062 11.288 0.167921 11.8364 0.324569 12.3509C 0.481012 12.8659 0.699744 13.2967 0.98097 13.6434C 1.21841 13.9456 1.48833 14.1669 1.79094 14.3068C 2.09334 14.4467 2.4093 14.5332 2.73884 14.5668C 3.06838 14.6002 3.39524 14.5862 3.71943 14.5248C 4.04342 14.4635 4.35137 14.3768 4.64288 14.2646C 5.02093 14.1194 5.41008 13.9345 5.80972 13.7107C 6.20915 13.4871 6.59275 13.2183 6.96032 12.9048C 7.15336 12.74 7.3394 12.5603 7.51928 12.3675C 7.6011 12.5779 7.69258 12.7815 7.80277 12.9721C 8.09448 13.4756 8.48857 13.8843 8.98565 14.1975C 9.48232 14.5108 10.0929 14.6616 10.8167 14.6507C 11.5946 14.6394 12.3129 14.4354 12.9719 14.038C 13.6308 13.6411 14.1711 13.0558 14.5925 12.2838C 15.2236 12.2838 15.8442 12.1761 16.4546 11.9621C 16.4497 12.0298 16.4443 12.1011 16.4396 12.1665C 16.3966 12.7596 16.3746 13.1623 16.3746 13.3751C 16.3641 13.7443 16.3399 14.2003 16.3019 14.7429C 16.264 15.2858 16.2398 15.8565 16.2291 16.4551C 16.2184 17.0538 16.2398 17.6582 16.2938 18.2683C 16.3479 18.878 16.4612 19.4322 16.6341 19.9303C 16.8067 20.428 17.0524 20.8505 17.3713 21.1976C 17.6899 21.5443 18.1087 21.7515 18.6273 21.8186C 19.1781 21.8968 19.6533 21.796 20.0532 21.5164C 20.4526 21.2366 20.7768 20.8535 21.0256 20.3666C 21.2739 19.8796 21.4492 19.3174 21.552 18.6795C 21.6546 18.0417 21.6842 17.4009 21.6412 16.7573C 21.5979 16.1138 21.4844 15.5068 21.3008 14.9363C 21.117 14.3653 20.8631 13.8953 20.5392 13.5258C 20.7338 13.4703 20.9659 13.364 21.2361 13.207C 21.5058 13.0505 21.7841 12.8742 22.0707 12.6782C 22.1408 12.6301 22.2103 12.5794 22.2804 12.53C 22.2541 12.9266 22.2407 13.2094 22.2407 13.3751C 22.23 13.7443 22.2058 14.2003 22.1677 14.7429C 22.1301 15.2858 22.1056 15.8565 22.095 16.4551C 22.0843 17.0538 22.1056 17.6582 22.1597 18.2683C 22.2138 18.878 22.3273 19.4322 22.4999 19.9303C 22.6726 20.428 22.9185 20.8505 23.2371 21.1976C 23.5558 21.5443 23.9745 21.7515 24.4932 21.8186C 25.0439 21.8968 25.5192 21.796 25.9191 21.5164C 26.3187 21.2366 26.6427 20.8535 26.8914 20.3666C 27.1398 19.8796 27.3151 19.3174 27.4179 18.6795C 27.5205 18.0417 27.5501 17.4009 27.5071 16.7573C 27.4637 16.1138 27.3503 15.5068 27.1669 14.9363C 26.9829 14.3653 26.7292 13.8953 26.405 13.5258C 26.5997 13.4703 26.8318 13.364 27.1019 13.207C 27.3719 13.0505 27.65 12.8742 27.9366 12.6782C 28.0852 12.5765 28.2332 12.4715 28.3806 12.3635C 28.4363 12.9108 28.556 13.3908 28.7465 13.7946C 28.9788 14.2872 29.2948 14.6675 29.6944 14.9363C 30.0941 15.2046 30.564 15.3531 31.1045 15.381C 31.6445 15.4086 32.2331 15.3054 32.8708 15.0702C 33.3459 14.8914 33.7591 14.6675 34.1102 14.399C 34.4611 14.1302 34.7771 13.8029 35.0581 13.417C 35.0743 13.3947 35.0898 13.3704 35.1056 13.3478C 35.1555 13.5045 35.211 13.6551 35.277 13.7946C 35.5093 14.2872 35.8253 14.6675 36.2249 14.9363C 36.6244 15.2046 37.0945 15.3531 37.6348 15.381C 38.1748 15.4086 38.7636 15.3054 39.4011 15.0702C 39.8764 14.8914 40.2896 14.6675 40.6407 14.399C 40.9916 14.1302 41.3076 13.8029 41.5886 13.417C 41.8694 13.0307 42.1258 12.5858 42.3583 12.0824C 42.5906 11.5787 42.8253 11.0027 43.0632 10.3533C 43.1064 10.1744 43.0657 10.0149 42.9417 9.87502Z"/>
</defs>
</svg>
